<?xml version="1.0" encoding="utf-8"?>
<!-- Generator: Adobe Illustrator 23.0.3, SVG Export Plug-In . SVG Version: 6.00 Build 0)  -->
<svg version="1.1" id="Layer_1" xmlns="http://www.w3.org/2000/svg" xmlns:xlink="http://www.w3.org/1999/xlink" x="0px" y="0px"
	 viewBox="0 0 37.8 29" style="enable-background:new 0 0 37.8 29;" xml:space="preserve">
<style type="text/css">
	.st0{fill:#FCA416;stroke:#FCA416;stroke-width:0.75;stroke-miterlimit:10;}
</style>
<path class="st0" d="M33.6,0.4H9.9c-0.1-0.1-0.3-0.1-0.4,0H4.3c-2.1,0-3.8,1.7-3.8,3.9v20.6c0,2.1,1.7,3.9,3.8,3.9h29.3
	c2.1,0,3.8-1.7,3.8-3.9V4.2C37.4,2.1,35.7,0.4,33.6,0.4z M36.3,4.2v14.6H14.2c0.9-0.5,1.4-1.5,1.4-2.5c0-1.6-1.3-2.9-3-2.9
	c-1,0-1.9,0.5-2.5,1.3V1.5h23.4C35.1,1.5,36.3,2.7,36.3,4.2z M4.8,16.3c0-1,0.8-1.8,1.8-1.8c0.3,0,0.6,0.1,0.9,0.2
	C8,15,8.3,15.4,8.4,15.9l0.5,2.6L6.3,18C5.4,17.9,4.8,17.1,4.8,16.3z M10.4,18.5l0.5-2.6c0.2-0.9,1-1.5,1.9-1.4
	c0.9,0.1,1.6,0.8,1.6,1.8c0,0.9-0.6,1.6-1.5,1.8L10.4,18.5z M4.3,1.5h4.8v13.2c-0.3-0.4-0.6-0.7-1-0.9c-0.5-0.3-1-0.4-1.5-0.4
	c-1.6,0-3,1.3-3,2.9c0,1,0.5,2,1.4,2.5H1.6V4.2C1.6,2.7,2.8,1.5,4.3,1.5z M1.6,24.9v-4.9h6.7l-2.7,2.7c-0.2,0.2-0.2,0.6,0,0.8
	c0.2,0.2,0.6,0.2,0.8,0l2.7-2.7v6.8H4.3C2.8,27.6,1.6,26.3,1.6,24.9z M33.6,27.6H10.2v-6.8l3.6,3.7c0.2,0.2,0.6,0.2,0.8,0
	c0.2-0.2,0.2-0.6,0-0.8L11,19.9h25.3v4.9C36.3,26.3,35.1,27.6,33.6,27.6z"/>
</svg>
