<?xml version="1.0" encoding="utf-8"?>
<!-- Generator: Adobe Illustrator 23.0.3, SVG Export Plug-In . SVG Version: 6.00 Build 0)  -->
<svg version="1.1" id="Capa_1" xmlns="http://www.w3.org/2000/svg" xmlns:xlink="http://www.w3.org/1999/xlink" x="0px" y="0px"
	 viewBox="0 0 28.1 22.9" style="enable-background:new 0 0 28.1 22.9;" xml:space="preserve">
<style type="text/css">
	.st0{fill:#FCA416;}
</style>
<g>
	<path class="st0" d="M24.7,14.9L28,4.9c0.2-0.5,0-0.8-0.1-1c-0.3-0.5-1.1-0.5-1.2-0.5L8,3.5L7.5,1.1C7.3,0.5,6.9,0,6.1,0H0.8
		C0.3,0,0,0.3,0,0.8v1.4c0,0.5,0.3,0.6,0.9,0.6h4.5l3.4,14.5c-0.5,0.6-0.8,1.4-0.8,2.2c0,1.7,1.4,3.3,3.1,3.3c1.6,0,2.9-1.5,3.1-2.5
		h6.6c0.2,0.9,1.2,2.5,3.1,2.5c1.7,0,3.1-1.5,3.1-3.2c0-1.7-1-3.2-3.1-3.2c-0.9,0-1.9,0.5-2.3,1.2h-8.2c-0.6-0.9-1.4-1.2-2.2-1.2
		L11,15.6h12.4C24.3,15.6,24.5,15.3,24.7,14.9z M23.8,18.3c0.6,0,1.2,0.5,1.2,1.2c0,0.6-0.5,1.2-1.2,1.2s-1.2-0.5-1.2-1.2
		C22.6,18.9,23.2,18.3,23.8,18.3z M12.2,19.5c0,0.7-0.5,1.2-1.2,1.2c-0.7,0-1.2-0.5-1.2-1.2c0-0.7,0.5-1.2,1.2-1.2
		C11.6,18.3,12.2,18.9,12.2,19.5z"/>
</g>
</svg>
