<?xml version="1.0" encoding="utf-8"?>
<!-- Generator: Adobe Illustrator 23.0.3, SVG Export Plug-In . SVG Version: 6.00 Build 0)  -->
<svg version="1.1" id="Capa_1" xmlns="http://www.w3.org/2000/svg" xmlns:xlink="http://www.w3.org/1999/xlink" x="0px" y="0px"
	 viewBox="0 0 15 15" style="enable-background:new 0 0 15 15;" xml:space="preserve">
<style type="text/css">
	.st0{fill:#FAA61A;}
</style>
<g>
	<g>
		<path class="st0" d="M14.4,4.6c-0.8-1.8-2.1-3.2-4-4C9.5,0.2,8.5,0,7.5,0c-1,0-2,0.2-2.9,0.6c-1.8,0.8-3.2,2.1-4,4
			C0.3,5.5,0.1,6.4,0.1,7.5c0,1,0.2,2,0.6,2.9c0.8,1.8,2.1,3.2,4,4c0.9,0.4,1.9,0.6,2.9,0.6s2-0.2,2.9-0.6c1.9-0.8,3.2-2.1,4-4
			C14.8,9.4,15,8.5,15,7.5C15,6.4,14.8,5.5,14.4,4.6z M13.2,10.8c-0.6,1-1.4,1.8-2.4,2.4c-1,0.6-2.1,0.9-3.3,0.9
			c-0.9,0-1.7-0.2-2.6-0.5c-0.8-0.4-1.5-0.8-2.1-1.4c-0.6-0.6-1-1.3-1.4-2.1C1.1,9.2,1,8.4,1,7.5c0-1.2,0.3-2.3,0.9-3.3
			c0.6-1,1.4-1.8,2.4-2.4c1-0.6,2.1-0.9,3.3-0.9c1.2,0,2.3,0.3,3.3,0.9c1,0.6,1.8,1.4,2.4,2.4c0.6,1,0.9,2.1,0.9,3.3
			C14.1,8.6,13.8,9.8,13.2,10.8z"/>
		<path class="st0" d="M8,7.4V3.2c0-0.3-0.2-0.5-0.5-0.5c-0.2,0-0.4,0.2-0.4,0.5v4.3c0,0,0,0,0,0.1c0,0.1,0,0.3,0.1,0.4l2.4,2.4
			c0.2,0.2,0.5,0.2,0.6,0c0.2-0.2,0.2-0.5,0-0.6L8,7.4z"/>
	</g>
</g>
</svg>
