<?xml version="1.0" encoding="utf-8"?>
<!-- Generator: Adobe Illustrator 23.0.3, SVG Export Plug-In . SVG Version: 6.00 Build 0)  -->
<svg version="1.1" id="Capa_1" xmlns="http://www.w3.org/2000/svg" xmlns:xlink="http://www.w3.org/1999/xlink" x="0px" y="0px"
	 viewBox="0 0 34 55.4" style="enable-background:new 0 0 34 55.4;" xml:space="preserve">
<style type="text/css">
	.st0{fill:#FCA416;}
</style>
<g>
	<g>
		<path class="st0" d="M34,26.5c0-9.4-7.6-17-17-17s-17,7.6-17,17c0,5.7,2.9,11.1,7.7,14.2v5.4c0,5.1,4.2,9.3,9.3,9.3
			s9.3-4.2,9.3-9.3v-3c0,0,0-2.3,0-2.3C31.1,37.7,34,32.3,34,26.5z M23,46.1c0,3.3-2.7,6-6,6s-6-2.7-6-6v-1.4h12V46.1z M23.8,38.4
			c-0.5,0.3-0.8,0.8-0.8,1.4v1.6h-4.4V33c2.1-0.7,3.7-2.7,3.7-5c0-0.9-0.7-1.6-1.6-1.6S19,27.1,19,28c0,1.1-0.9,2-2,2s-2-0.9-2-2
			c0-0.9-0.7-1.6-1.6-1.6c-0.9,0-1.6,0.7-1.6,1.6c0,2.4,1.5,4.4,3.7,5v8.5H11v-1.6c0-0.6-0.3-1.1-0.8-1.4c-4.3-2.4-6.9-7-6.9-11.9
			C3.3,19,9.4,12.8,17,12.8S30.7,19,30.7,26.5C30.7,31.4,28.1,36,23.8,38.4z"/>
	</g>
</g>
<g>
	<g>
		<path class="st0" d="M17,0c-0.9,0-1.6,0.7-1.6,1.6v2.9c0,0.9,0.7,1.6,1.6,1.6c0.9,0,1.6-0.7,1.6-1.6V1.6C18.6,0.7,17.9,0,17,0z"/>
	</g>
</g>
<g>
	<g>
		<path class="st0" d="M12.4,4.9l-1-2.7c-0.3-0.8-1.3-1.3-2.1-1C8.4,1.6,8,2.6,8.3,3.4l1,2.7c0.2,0.7,0.9,1.1,1.5,1.1
			c0.2,0,0.4,0,0.6-0.1C12.3,6.7,12.7,5.8,12.4,4.9z"/>
	</g>
</g>
<g>
	<g>
		<path class="st0" d="M24.7,1.3c-0.8-0.3-1.8,0.1-2.1,1l-1,2.7c-0.3,0.8,0.1,1.8,1,2.1c0.2,0.1,0.4,0.1,0.6,0.1
			c0.7,0,1.3-0.4,1.5-1.1l1-2.7C26,2.6,25.6,1.6,24.7,1.3z"/>
	</g>
</g>
</svg>
