<?xml version="1.0" encoding="utf-8"?>
<!-- Generator: Adobe Illustrator 23.0.3, SVG Export Plug-In . SVG Version: 6.00 Build 0)  -->
<svg version="1.1" id="Layer_1" xmlns="http://www.w3.org/2000/svg" xmlns:xlink="http://www.w3.org/1999/xlink" x="0px" y="0px"
	 viewBox="0 0 47 47" style="enable-background:new 0 0 47 47;" xml:space="preserve">
<style type="text/css">
	.st0{fill:#FCA416;}
</style>
<g>
	<g>
		<g>
			<path class="st0" d="M43.1,27.9V7.8c0-2.2-1.8-3.9-3.9-3.9h-5.9V1c0-0.5-0.4-1-1-1s-1,0.4-1,1v2.9H13.7V1c0-0.5-0.4-1-1-1
				c-0.5,0-1,0.4-1,1v2.9H3.9C1.8,3.9,0,5.7,0,7.8v31.3c0,2.2,1.8,3.9,3.9,3.9h24c2,2.4,5,3.9,8.3,3.9C42.2,47,47,42.2,47,36.2
				C47,32.9,45.5,29.9,43.1,27.9z M2,7.8c0-1.1,0.9-2,2-2h7.8v2c-1.1,0-2,0.9-2,2s0.9,2,2,2s2-0.9,2-2V5.9h17.6v2c-1.1,0-2,0.9-2,2
				s0.9,2,2,2c1.1,0,2-0.9,2-2V5.9h5.9c1.1,0,2,0.9,2,2v5.9H2V7.8z M3.9,41.1c-1.1,0-2-0.9-2-2V15.7h39.2v11
				c-1.5-0.8-3.1-1.2-4.9-1.2c-5.9,0-10.8,4.8-10.8,10.8c0,1.8,0.4,3.4,1.2,4.9H3.9z M36.2,45c-4.9,0-8.8-4-8.8-8.8s4-8.8,8.8-8.8
				s8.8,4,8.8,8.8S41.1,45,36.2,45z"/>
			<path class="st0" d="M40.1,35.3h-2.9v-2.9c0-0.5-0.4-1-1-1s-1,0.4-1,1v2.9h-2.9c-0.5,0-1,0.4-1,1c0,0.5,0.4,1,1,1h2.9v2.9
				c0,0.5,0.4,1,1,1c0.5,0,1-0.4,1-1v-2.9h2.9c0.5,0,1-0.4,1-1C41.1,35.7,40.7,35.3,40.1,35.3z"/>
		</g>
	</g>
</g>
</svg>
