<?xml version="1.0" encoding="utf-8"?>
<!-- Generator: Adobe Illustrator 23.0.3, SVG Export Plug-In . SVG Version: 6.00 Build 0)  -->
<svg version="1.1" id="Capa_1" xmlns="http://www.w3.org/2000/svg" xmlns:xlink="http://www.w3.org/1999/xlink" x="0px" y="0px"
	 viewBox="0 0 15 11.4" style="enable-background:new 0 0 15 11.4;" xml:space="preserve">
<style type="text/css">
	.st0{fill:#FAA61A;}
</style>
<g>
	<g>
		<path class="st0" d="M13.1,0H1.8C0.8,0,0,0.8,0,1.8v7.7c0,1,0.8,1.8,1.8,1.8h11.3c1,0,1.8-0.8,1.8-1.8V1.8C15,0.8,14.1,0,13.1,0z
			 M14.1,9.6c0,0.5-0.4,1-1,1H1.8c-0.5,0-1-0.4-1-1V1.8c0-0.5,0.4-1,1-1h11.3c0.5,0,1,0.4,1,1L14.1,9.6L14.1,9.6z"/>
		<path class="st0" d="M9.4,5.6l3.7-3.3c0.2-0.2,0.2-0.4,0-0.6c-0.2-0.2-0.4-0.2-0.6,0l-5,4.5l-1-0.9c0,0,0,0,0,0c0,0,0,0-0.1-0.1
			l-4-3.6C2.3,1.5,2,1.6,1.8,1.7s-0.1,0.4,0,0.6l3.7,3.3L1.9,9.1c-0.2,0.2-0.2,0.4,0,0.6c0.1,0.1,0.2,0.1,0.3,0.1
			c0.1,0,0.2,0,0.3-0.1l3.7-3.5l1,0.9c0.1,0.1,0.2,0.1,0.3,0.1c0.1,0,0.2,0,0.3-0.1l1-0.9l3.7,3.5c0.1,0.1,0.2,0.1,0.3,0.1
			c0.1,0,0.2,0,0.3-0.1c0.2-0.2,0.2-0.4,0-0.6L9.4,5.6z"/>
	</g>
</g>
</svg>
