<?xml version="1.0" encoding="utf-8"?>
<!-- Generator: Adobe Illustrator 23.0.3, SVG Export Plug-In . SVG Version: 6.00 Build 0)  -->
<svg version="1.1" id="Layer_1" xmlns="http://www.w3.org/2000/svg" xmlns:xlink="http://www.w3.org/1999/xlink" x="0px" y="0px"
	 viewBox="0 0 50 50" style="enable-background:new 0 0 50 50;" xml:space="preserve">
<style type="text/css">
	.st0{fill:#FCA416;}
</style>
<path class="st0" d="M41.9,26.6l6.8-4.9c1.2-0.8,1.6-2.3,1.2-3.7c-0.4-1.4-1.7-2.3-3.1-2.3H32.5L28.1,2.2C27.7,0.8,26.4,0,25,0
	c-1.4,0-2.7,0.9-3.1,2.3l-4.4,13.5h-3.5c-0.5,0-1,0.4-1,1c0,0.5,0.4,1,1,1h4.2c0.4,0,0.8-0.3,0.9-0.7l4.6-14.2
	C24,2.1,24.5,1.9,25,1.9c0.5,0,1,0.2,1.3,0.9L30.8,17c0.1,0.4,0.5,0.7,0.9,0.7h15c0.7,0,1.1,0.5,1.3,0.9c0.1,0.4,0.1,1.1-0.5,1.5
	L39.3,26C38.9,26,38.4,26,38,26c-6.3,0-11.6,4.9-12,11.2l-0.4-0.3c-0.3-0.3-0.8-0.3-1.2,0l-12.1,8.8c-0.6,0.4-1.2,0.3-1.6,0
	c-0.4-0.3-0.7-0.8-0.5-1.5L15,29.9c0.1-0.4,0-0.8-0.4-1.1L2.5,20.1c-0.6-0.4-0.6-1-0.5-1.5s0.5-0.9,1.3-0.9h3c0.5,0,1-0.4,1-1
	c0-0.5-0.4-1-1-1h-3c-1.4,0-2.7,0.9-3.1,2.3c-0.4,1.4,0,2.8,1.2,3.7L12.9,30L8.5,43.5c-0.5,1.4,0,2.8,1.2,3.7
	c0.6,0.4,1.3,0.6,1.9,0.6c0.7,0,1.3-0.2,1.9-0.6L25,38.8l1.1,0.8C26.9,45.5,31.9,50,38,50c6.6,0,12-5.4,12-12
	C50,32.7,46.6,28.2,41.9,26.6z M38,48c-5.6,0-10.1-4.5-10.1-10.1S32.5,27.9,38,27.9S48.1,32.4,48.1,38S43.6,48,38,48z"/>
<path class="st0" d="M43.9,35h-2.9v-2.9c0-0.5-0.4-1-1-1H36c-0.5,0-1,0.4-1,1V35h-2.9c-0.5,0-1,0.4-1,1v3.9c0,0.5,0.4,1,1,1h2.9v2.9
	c0,0.5,0.4,1,1,1H40c0.5,0,1-0.4,1-1v-2.9h2.9c0.5,0,1-0.4,1-1V36C44.8,35.5,44.4,35,43.9,35z M42.9,39H40c-0.5,0-1,0.4-1,1v2.9h-2
	v-2.9c0-0.5-0.4-1-1-1h-2.9v-2H36c0.5,0,1-0.4,1-1v-2.9h2V36c0,0.5,0.4,1,1,1h2.9V39z"/>
<path class="st0" d="M10.1,17.7c0.3,0,0.5-0.1,0.7-0.3c0.2-0.2,0.3-0.4,0.3-0.7c0-0.3-0.1-0.5-0.3-0.7c-0.2-0.2-0.4-0.3-0.7-0.3
	S9.6,15.8,9.5,16c-0.2,0.2-0.3,0.4-0.3,0.7c0,0.3,0.1,0.5,0.3,0.7C9.6,17.6,9.9,17.7,10.1,17.7z"/>
</svg>
