<?xml version="1.0" encoding="utf-8"?>
<!-- Generator: Adobe Illustrator 23.0.3, SVG Export Plug-In . SVG Version: 6.00 Build 0)  -->
<svg version="1.1" id="Layer_1" xmlns="http://www.w3.org/2000/svg" xmlns:xlink="http://www.w3.org/1999/xlink" x="0px" y="0px"
	 viewBox="0 0 39 39" style="enable-background:new 0 0 39 39;" xml:space="preserve">
<style type="text/css">
	.st0{fill:#FFFFFF;}
</style>
<g>
	<g>
		<path class="st0" d="M19.5,39C30.3,39,39,30.3,39,19.5S30.3,0,19.5,0S0,8.7,0,19.5S8.7,39,19.5,39z M19.5,1.6
			c9.9,0,17.9,8,17.9,17.9s-8,17.9-17.9,17.9s-17.9-8-17.9-17.9S9.6,1.6,19.5,1.6z"/>
		<path class="st0" d="M16.7,26c0.2,0.2,0.4,0.2,0.6,0.2s0.4-0.1,0.6-0.2l5.9-5.9c0.2-0.2,0.2-0.4,0.2-0.6s-0.1-0.4-0.2-0.6L17.8,13
			c-0.3-0.3-0.8-0.3-1.1,0s-0.3,0.8,0,1.1l5.4,5.4l-5.4,5.4C16.4,25.2,16.4,25.7,16.7,26z"/>
	</g>
</g>
</svg>
