<?xml version="1.0" encoding="utf-8"?>
<!-- Generator: Adobe Illustrator 23.0.3, SVG Export Plug-In . SVG Version: 6.00 Build 0)  -->
<svg version="1.1" id="Capa_1" xmlns="http://www.w3.org/2000/svg" xmlns:xlink="http://www.w3.org/1999/xlink" x="0px" y="0px"
	 viewBox="0 0 12.7 12.7" style="enable-background:new 0 0 12.7 12.7;" xml:space="preserve">
<style type="text/css">
	.st0{fill:#FAA61A;}
</style>
<g>
	<g>
		<path class="st0" d="M10.1,7.9C9.8,7.6,9.5,7.5,9.2,7.5c-0.3,0-0.6,0.1-0.9,0.4L7.4,8.7c-0.1,0-0.1-0.1-0.2-0.1
			C7.1,8.6,7,8.5,6.9,8.5C6.1,8,5.4,7.3,4.7,6.5C4.4,6,4.1,5.7,4,5.3c0.2-0.2,0.4-0.4,0.6-0.6c0.1-0.1,0.2-0.2,0.2-0.2
			c0.6-0.6,0.6-1.3,0-1.9L4.1,1.9C4,1.8,3.9,1.7,3.8,1.6C3.7,1.5,3.5,1.3,3.3,1.1C3.1,0.9,2.8,0.7,2.4,0.7S1.8,0.9,1.5,1.1
			c0,0,0,0,0,0L0.6,2.1C0.3,2.4,0.1,2.8,0,3.3c-0.1,0.8,0.2,1.5,0.3,2c0.4,1.2,1.1,2.3,2.1,3.4C3.6,10.2,5,11.3,6.6,12
			c0.6,0.3,1.4,0.6,2.4,0.7c0.1,0,0.1,0,0.2,0c0.6,0,1.1-0.2,1.6-0.7c0,0,0,0,0,0c0.1-0.2,0.3-0.3,0.5-0.5c0.1-0.1,0.2-0.2,0.3-0.3
			c0.3-0.3,0.4-0.6,0.4-0.9c0-0.3-0.1-0.7-0.4-0.9L10.1,7.9z M11,10.7C11,10.7,11,10.7,11,10.7c-0.1,0.1-0.2,0.2-0.3,0.3
			c-0.2,0.2-0.4,0.3-0.5,0.5c-0.3,0.3-0.6,0.4-1,0.4c0,0-0.1,0-0.1,0c-0.8-0.1-1.5-0.4-2.1-0.6c-1.5-0.7-2.9-1.8-4-3.1
			C2.1,7.2,1.4,6.2,1,5.1C0.8,4.4,0.7,3.9,0.7,3.4c0-0.3,0.1-0.6,0.4-0.8L2,1.7c0.1-0.1,0.3-0.2,0.4-0.2c0.2,0,0.3,0.1,0.4,0.2
			c0,0,0,0,0,0C3,1.8,3.2,2,3.3,2.1c0.1,0.1,0.2,0.2,0.3,0.3l0.7,0.7c0.3,0.3,0.3,0.5,0,0.8C4.2,4,4.2,4.1,4.1,4.2
			C3.9,4.4,3.6,4.7,3.4,4.9c0,0,0,0,0,0C3.2,5.1,3.2,5.3,3.3,5.5c0,0,0,0,0,0C3.5,6,3.7,6.4,4.1,6.9l0,0c0.7,0.9,1.5,1.6,2.4,2.2
			c0.1,0.1,0.2,0.1,0.3,0.2c0.1,0,0.2,0.1,0.3,0.1c0,0,0,0,0,0c0.1,0,0.2,0.1,0.3,0.1c0.2,0,0.4-0.1,0.4-0.2l0.9-0.9
			C8.8,8.3,9,8.2,9.2,8.2c0.2,0,0.3,0.1,0.4,0.2c0,0,0,0,0,0L11,9.9C11.3,10.2,11.3,10.4,11,10.7z"/>
		<path class="st0" d="M6.9,3c0.7,0.1,1.3,0.5,1.9,1c0.5,0.5,0.8,1.2,1,1.9c0,0.2,0.2,0.3,0.4,0.3c0,0,0,0,0.1,0
			c0.2,0,0.3-0.2,0.3-0.4c-0.1-0.9-0.5-1.6-1.2-2.2C8.6,2.9,7.9,2.5,7,2.3c-0.2,0-0.4,0.1-0.4,0.3C6.6,2.8,6.7,3,6.9,3z"/>
		<path class="st0" d="M12.7,5.6c-0.2-1.4-0.9-2.7-1.9-3.7S8.5,0.2,7.1,0C6.9,0,6.7,0.1,6.7,0.3c0,0.2,0.1,0.4,0.3,0.4
			c1.3,0.2,2.4,0.8,3.3,1.7c0.9,0.9,1.5,2.1,1.7,3.3C12,5.9,12.2,6,12.4,6c0,0,0,0,0.1,0C12.6,6,12.8,5.8,12.7,5.6z"/>
	</g>
</g>
</svg>
