<?xml version="1.0" encoding="utf-8"?>
<!-- Generator: Adobe Illustrator 23.0.3, SVG Export Plug-In . SVG Version: 6.00 Build 0)  -->
<svg version="1.1" id="Capa_1" xmlns="http://www.w3.org/2000/svg" xmlns:xlink="http://www.w3.org/1999/xlink" x="0px" y="0px"
	 viewBox="0 0 37.6 43" style="enable-background:new 0 0 37.6 43;" xml:space="preserve">
<style type="text/css">
	.st0{fill:#FCA416;}
</style>
<g>
	<g>
		<path class="st0" d="M36.7,26.6c0.6-0.7,1-1.5,1-2.5c0-2.1-1.7-3.8-3.8-3.8h-7.3c0.7-2.2,1-5.1,1-6.4v-1.3c0-2.8-2.3-5-5-5h-1.3
			c-0.6,0-1.1,0.4-1.2,0.9l-0.7,2.7c-1,3.8-4,8.1-7.1,8.8c-0.6-1.4-1.9-2.4-3.5-2.4H1.3c-0.7,0-1.3,0.6-1.3,1.3v22.6
			c0,0.7,0.6,1.3,1.3,1.3h7.5c1.5,0,2.8-0.9,3.4-2.1l4.3,1.4c1.4,0.5,2.9,0.7,4.4,0.7h10.5c2.1,0,3.8-1.7,3.8-3.8
			c0-0.5-0.1-1-0.3-1.4c1.6-0.4,2.8-1.9,2.8-3.6c0-1-0.4-1.8-1-2.5c0.6-0.7,1-1.5,1-2.5C37.6,28.2,37.3,27.3,36.7,26.6z M10,39.2
			c0,0.7-0.6,1.3-1.3,1.3H2.5V20.4h6.3c0.7,0,1.3,0.6,1.3,1.3V39.2z M31.4,27.9h2.5c0.7,0,1.3,0.6,1.3,1.3c0,0.7-0.6,1.3-1.3,1.3
			h-2.5c-0.7,0-1.3,0.6-1.3,1.3s0.6,1.3,1.3,1.3h2.5c0.7,0,1.3,0.6,1.3,1.3c0,0.7-0.6,1.3-1.3,1.3h-2.5c-0.7,0-1.3,0.6-1.3,1.3
			s0.6,1.3,1.3,1.3c0.7,0,1.3,0.6,1.3,1.3c0,0.7-0.6,1.3-1.3,1.3H20.8c-1.2,0-2.4-0.2-3.6-0.6l-4.7-1.6V22.8c2-0.4,3.9-1.6,5.6-3.7
			c1.7-2,3.1-4.6,3.7-7.1l0.4-1.8h0.3c1.4,0,2.5,1.1,2.5,2.5V14c0,1.7-0.5,4.9-1.2,6.4h-2.6c-0.7,0-1.3,0.6-1.3,1.3
			c0,0.7,0.6,1.3,1.3,1.3h12.5c0.7,0,1.3,0.6,1.3,1.3c0,0.7-0.6,1.3-1.3,1.3h-2.5c-0.7,0-1.3,0.6-1.3,1.3
			C30.1,27.3,30.7,27.9,31.4,27.9z"/>
	</g>
</g>
<g>
	<g>
		<circle class="st0" cx="6.3" cy="36.7" r="1.3"/>
	</g>
</g>
<g>
	<g>
		<path class="st0" d="M23.8,0.1c-0.7,0-1.3,0.6-1.3,1.3V4c0,0.7,0.6,1.3,1.3,1.3c0.7,0,1.3-0.6,1.3-1.3V1.4
			C25.1,0.7,24.5,0.1,23.8,0.1z"/>
	</g>
</g>
<g>
	<g>
		<path class="st0" d="M18.5,5.7l-1.8-1.8c-0.5-0.5-1.3-0.5-1.8,0c-0.5,0.5-0.5,1.3,0,1.8l1.8,1.8c0.5,0.5,1.3,0.5,1.8,0
			C19,7,19,6.2,18.5,5.7z"/>
	</g>
</g>
<g>
	<g>
		<path class="st0" d="M32.7,3.9c-0.5-0.5-1.3-0.5-1.8,0l-1.8,1.8c-0.5,0.5-0.5,1.3,0,1.8c0.5,0.5,1.3,0.5,1.8,0l1.8-1.8
			C33.2,5.2,33.2,4.4,32.7,3.9z"/>
	</g>
</g>
</svg>
